# xmcd
#
# Track frame offsets:
#	150
#	12545
#	24335
#	38060
#	50910
#	62632
#	76305
#	86392
#	98295
#	108042
#
# Disc length: 1598
#
# Revision: 3
# Processed by: cddbd v1.5.1PL0 Copyright (c) Steve Scherf et al.
# Submitted via: dBpowerAMP V4.0
# Normalized: r1:TSWAP
#
DISCID=69063c0a
DTITLE=Various Artist - Double Barrel Country
DYEAR=1900
DGENRE=Country
TTITLE0=Patsy Cline - Crazy
TTITLE1=Patsy Cline - Sweet Dreams (Of You)
TTITLE2=Patsy Cline - She's Got You
TTITLE3=Patsy Cline - I Fall To Pieces
TTITLE4=Patsy Cline - Walkin' After Midnight
TTITLE5=Loretta Lynn - Coal Miner's Daughter
TTITLE6=Loretta Lynn - You Ain't Woman Enough (To Take My Man)
TTITLE7=Loretta Lynn - The Pill
TTITLE8=Loretta Lynn - Don't Come Home Drinkin' (With Lovin' On Your Mind)
TTITLE9=Loretta Lynn - One's On The Way
EXTD=Patsy Cline - Loretta Lynn
EXTT0=
EXTT1=
EXTT2=
EXTT3=
EXTT4=
EXTT5=
EXTT6=
EXTT7=
EXTT8=
EXTT9=
PLAYORDER=
